<?xml version="1.0" encoding="utf-8"?>
<!-- Generator: Adobe Illustrator 28.0.0, SVG Export Plug-In . SVG Version: 6.00 Build 0)  -->
<svg version="1.1"
	 id="Layer_1" xmlns:svg="http://www.w3.org/2000/svg" xmlns:cc="http://creativecommons.org/ns#" xmlns:rdf="http://www.w3.org/1999/02/22-rdf-syntax-ns#" xmlns:dc="http://purl.org/dc/elements/1.1/" xmlns:inkscape="http://www.inkscape.org/namespaces/inkscape" xmlns:sodipodi="http://sodipodi.sourceforge.net/DTD/sodipodi-0.dtd"
	 xmlns="http://www.w3.org/2000/svg" xmlns:xlink="http://www.w3.org/1999/xlink" x="0px" y="0px" viewBox="0 0 102.6 95.9"
	 style="enable-background:new 0 0 102.6 95.9;" xml:space="preserve">
<g transform="translate(0,-952.36218)">
	<path d="M51.3,957.1c-23.8,0-43.2,19.4-43.2,43.2c0,23.8,19.4,43.2,43.2,43.2c23.8,0,43.2-19.4,43.2-43.2
		C94.5,976.5,75.1,957.1,51.3,957.1L51.3,957.1z M51.3,966.3c18.8,0,34,15.1,34,34c0,18.8-15.1,34-34,34c-18.8,0-34-15.1-34-34
		C17.3,981.5,32.5,966.3,51.3,966.3L51.3,966.3z M51.3,974.1c-2.6,0-4.6,2.1-4.6,4.6v17h-17c-2.6,0-4.6,2.1-4.6,4.6
		c0,2.6,2.1,4.6,4.6,4.6h17v17c0,2.6,2.1,4.6,4.6,4.6c2.6,0,4.6-2.1,4.6-4.6v-17h17c2.6,0,4.6-2.1,4.6-4.6c0-2.6-2.1-4.6-4.6-4.6
		h-17v-17C55.9,976.1,53.8,974.1,51.3,974.1z"/>
</g>
</svg>
