<?xml version="1.0" encoding="utf-8"?>
<!-- Generator: Adobe Illustrator 28.0.0, SVG Export Plug-In . SVG Version: 6.00 Build 0)  -->
<svg version="1.1" id="Layer_1" xmlns="http://www.w3.org/2000/svg" xmlns:xlink="http://www.w3.org/1999/xlink" x="0px" y="0px"
	 viewBox="0 0 333.3 356.7" style="enable-background:new 0 0 333.3 356.7;" xml:space="preserve">
<g>
	<path d="M166.7,346.6c-11.9,0-23.4-4.6-33.3-13.2c-7.2-6.3-13.5-14.8-18.3-24.6H62.8c-8,0-15.5-2-22.3-5.9
		c-6.7-4-12.3-9.6-16.2-16.5c-4-7-6.1-14.5-6.1-22.3c0-7.6,2.1-15.3,6.1-22.3l6-10.5l0.2-0.4l0.1-0.1c2-3.6,3.5-7,4.4-10.6
		c1-3.6,1.4-7.4,1.4-11.8v-68.4c0-34.7,13.6-67.4,38.3-92c24.7-24.6,57.4-38.2,92-38.2c34.7,0,67.4,13.6,92,38.3
		c24.7,24.7,38.3,57.4,38.3,92v68.4c0,4.4,0.5,8.2,1.4,11.8c1,3.7,2.5,7.2,4.6,10.9l6.3,10.9l0.2,0.5c3.8,6.8,5.7,14,5.7,21.5
		c0,7.8-2,15.2-6.1,22.3l-0.2,0.3l-0.3,0.4c-4,6.6-9.3,11.9-15.8,15.6c-6.8,3.9-14.3,5.9-22.4,5.9h-52.2
		c-4.9,9.9-11.1,18.4-18.3,24.6C190,342,178.5,346.6,166.7,346.6z M144.7,308.8c1.7,2.1,3.4,4,5.3,5.5c5.4,4.6,11,7,16.7,7
		c5.8,0,11.4-2.3,16.7-7c1.8-1.6,3.6-3.4,5.2-5.5H144.7z M53.1,281c2.8,1.6,6.1,2.4,9.7,2.4h207.7c3.6,0,6.9-0.8,9.7-2.4
		c2.7-1.5,5-3.8,6.7-6.7l0.2-0.3l0.1-0.1c1.8-3.2,2.8-6.5,2.8-9.6c0-3.3-0.8-6.4-2.5-9.4l-0.1-0.2l-0.1-0.3l-6-10.5
		c-3.2-5.6-5.6-11.1-7.2-17c-1.6-5.8-2.4-11.8-2.4-18.3v-68.4c0-27.8-11-54.2-30.8-74.2c-19.9-19.8-46.2-30.7-74.1-30.7
		s-54.2,11-74.2,30.8C72.7,86,61.7,112.4,61.7,140.3v68.4c0,6.6-0.8,12.6-2.4,18.3c-1.5,5.6-3.7,11-6.8,16.4l-0.2,0.4l-6.2,10.7
		c-1.7,3.1-2.6,6.3-2.6,9.6c0,3.3,0.9,6.6,2.6,9.6C47.8,276.8,50.2,279.2,53.1,281z M228.4,152.9c-7,0-12.7-5.7-12.7-12.7
		c0-13-5.1-25.4-14.4-34.7c-9.2-9.2-21.5-14.3-34.6-14.3c-7,0-12.7-5.7-12.7-12.7s5.7-12.7,12.7-12.7c19.8,0,38.4,7.8,52.5,21.9
		c14.1,14.1,21.9,32.8,21.9,52.5C241.1,147.2,235.4,152.9,228.4,152.9z"/>
	<path d="M166.7,15c34.5,0,65.8,14.1,88.5,36.8s36.8,54,36.8,88.5v68.4c0,4.7,0.5,9,1.6,13.1s2.8,8.1,5.1,12.1l0,0l6.1,10.6l0.2,0.5
		c3.5,6.2,5.2,12.7,5.2,19.3c0,6.8-1.8,13.5-5.4,19.8l-0.3,0.4c-3.6,6.1-8.4,10.8-14.1,14.1c-5.9,3.4-12.6,5.2-19.9,5.2h-55.4
		c-4.7,10.5-11,19.4-18.4,25.8c-8.8,7.6-19,12-30,12s-21.3-4.4-30-12c-7.4-6.5-13.7-15.3-18.4-25.8H62.8c-7.2,0-13.9-1.8-19.8-5.2
		c-5.8-3.4-10.8-8.3-14.4-14.6l0,0c-3.6-6.3-5.4-13-5.4-19.8c0-6.7,1.8-13.5,5.4-19.8l0,0l0,0l6.1-10.6l0.2-0.4
		c2.2-3.9,3.8-7.7,4.9-11.7c1.1-4.1,1.6-8.4,1.6-13.1v-68.4c0-34.5,14.1-65.8,36.8-88.5C100.9,29.1,132.2,15,166.7,15L166.7,15z
		 M198,303.8h-62.7c3.3,5.7,7.1,10.6,11.4,14.3c6,5.2,12.8,8.2,20,8.2s14-3,20-8.2C190.9,314.4,194.7,309.6,198,303.8z M166.7,86.2
		c-4.2,0-7.7-3.4-7.7-7.7c0-4.2,3.4-7.7,7.7-7.7c19.1,0,36.4,7.8,49,20.4c12.6,12.6,20.4,29.9,20.4,49c0,4.2-3.4,7.7-7.7,7.7
		c-4.2,0-7.7-3.4-7.7-7.7c0-14.9-6.1-28.4-15.9-38.2S181.5,86.2,166.7,86.2z M166.7,30.3c-30.2,0-57.7,12.4-77.7,32.3
		c-20,20-32.3,47.5-32.3,77.7v68.4c0,6-0.7,11.6-2.2,17c-1.4,5.2-3.5,10.3-6.4,15.4l-0.2,0.4l-6.1,10.6l0,0c-2.2,3.9-3.3,8-3.3,12.1
		s1.1,8.3,3.3,12.1l0,0l0,0c2.2,3.9,5.3,6.9,8.8,9c3.5,2,7.7,3.1,12.2,3.1h207.7c4.5,0,8.7-1.1,12.2-3.1s6.4-4.9,8.6-8.6l0.2-0.4
		c2.2-3.9,3.4-8,3.4-12.1c0-4-1-8-3.1-11.8l-0.2-0.4l-6.1-10.6l0,0l0,0c-3-5.2-5.2-10.4-6.7-15.8c-1.5-5.4-2.2-11-2.2-17v-68.4
		c0-30.2-12.4-57.7-32.3-77.7C224.4,42.7,196.9,30.3,166.7,30.3L166.7,30.3z"/>
</g>
</svg>
