<?xml version="1.0" encoding="utf-8"?>
<!-- Generator: Adobe Illustrator 28.0.0, SVG Export Plug-In . SVG Version: 6.00 Build 0)  -->
<svg version="1.1" id="Layer_1" xmlns="http://www.w3.org/2000/svg" xmlns:xlink="http://www.w3.org/1999/xlink" x="0px" y="0px"
	 viewBox="0 0 333.3 356.7" style="enable-background:new 0 0 333.3 356.7;" xml:space="preserve">
<style type="text/css">
	.st0{fill:#FF125B;}
</style>
<g>
	<path d="M166.7,15c34.5,0,65.8,14.1,88.5,36.8s36.8,54,36.8,88.5v68.4c0,4.7,0.5,9,1.6,13.1s2.8,8.1,5.1,12.1l0,0l6.1,10.6l0.2,0.5
		c3.5,6.2,5.2,12.7,5.2,19.3c0,6.8-1.8,13.5-5.4,19.8l-0.3,0.4c-3.6,6.1-8.4,10.8-14.1,14.1c-5.9,3.4-12.6,5.2-19.9,5.2h-55.4
		c-4.7,10.5-11,19.4-18.4,25.8c-8.8,7.6-19,12-30,12s-21.3-4.4-30-12c-7.4-6.5-13.7-15.3-18.4-25.8H62.8c-7.2,0-13.9-1.8-19.8-5.2
		c-5.8-3.4-10.8-8.3-14.4-14.6l0,0c-3.6-6.3-5.4-13-5.4-19.8c0-6.7,1.8-13.5,5.4-19.8l0,0l0,0l6.1-10.6l0.2-0.4
		c2.2-3.9,3.8-7.7,4.9-11.7c1.1-4.1,1.6-8.4,1.6-13.1v-68.4c0-34.5,14.1-65.8,36.8-88.5C100.9,29.1,132.2,15,166.7,15L166.7,15z
		 M198,303.8h-62.7c3.3,5.7,7.1,10.6,11.4,14.3c6,5.2,12.8,8.2,20,8.2s14-3,20-8.2C190.9,314.4,194.7,309.6,198,303.8z M166.7,86.2
		c-4.2,0-7.7-3.4-7.7-7.7c0-4.2,3.4-7.7,7.7-7.7c19.1,0,36.4,7.8,49,20.4c12.6,12.6,20.4,29.9,20.4,49c0,4.2-3.4,7.7-7.7,7.7
		c-4.2,0-7.7-3.4-7.7-7.7c0-14.9-6.1-28.4-15.9-38.2S181.5,86.2,166.7,86.2z M166.7,30.3c-30.2,0-57.7,12.4-77.7,32.3
		c-20,20-32.3,47.5-32.3,77.7v68.4c0,6-0.7,11.6-2.2,17c-1.4,5.2-3.5,10.3-6.4,15.4l-0.2,0.4l-6.1,10.6l0,0c-2.2,3.9-3.3,8-3.3,12.1
		s1.1,8.3,3.3,12.1l0,0l0,0c2.2,3.9,5.3,6.9,8.8,9c3.5,2,7.7,3.1,12.2,3.1h207.7c4.5,0,8.7-1.1,12.2-3.1s6.4-4.9,8.6-8.6l0.2-0.4
		c2.2-3.9,3.4-8,3.4-12.1c0-4-1-8-3.1-11.8l-0.2-0.4l-6.1-10.6l0,0l0,0c-3-5.2-5.2-10.4-6.7-15.8c-1.5-5.4-2.2-11-2.2-17v-68.4
		c0-30.2-12.4-57.7-32.3-77.7C224.4,42.7,196.9,30.3,166.7,30.3L166.7,30.3z"/>
</g>
<circle class="st0" cx="227.7" cy="78.1" r="74"/>
</svg>
